<svg width="40" height="40" viewBox="0 0 40 40" fill="none" xmlns="http://www.w3.org/2000/svg">
                            <path fill-rule="evenodd" clip-rule="evenodd" d="M20.0002 1.5C9.78292 1.5 1.50018 9.78273 1.50018 20C1.50018 30.2173 9.78292 38.5 20.0002 38.5C30.2175 38.5 38.5002 30.2173 38.5002 20C38.5002 16.3332 37.4334 12.9156 35.5933 10.0406L30.9999 12.6926L30.4999 11.8266L35.0301 9.21101C31.672 4.54112 26.1912 1.5 20.0002 1.5ZM0.500183 20C0.500183 9.23045 9.23063 0.5 20.0002 0.5C30.7697 0.5 39.5002 9.23045 39.5002 20C39.5002 30.7696 30.7697 39.5 20.0002 39.5C9.23063 39.5 0.500183 30.7696 0.500183 20ZM25.4618 15.2174L25.3 16.091C24.8755 18.3837 23.752 21.8462 22.1947 24.2399C21.422 25.4275 20.4918 26.432 19.4165 26.8373C18.8655 27.045 18.2797 27.0934 17.6793 26.93C17.0847 26.7682 16.5094 26.4081 15.9548 25.8535C14.7541 24.6528 14.3138 23.4467 14.5699 22.2688C14.8164 21.135 15.6825 20.1677 16.7559 19.3519C18.9083 17.7161 22.2334 16.442 24.6311 15.5325L25.4618 15.2174ZM15.5471 22.4812C15.3865 23.2199 15.6128 24.0972 16.6619 25.1465C17.1272 25.6117 17.5563 25.8602 17.9419 25.9651C18.3217 26.0685 18.692 26.0417 19.0639 25.9015C19.8346 25.6111 20.6181 24.8294 21.3564 23.6946C22.6361 21.7276 23.6275 18.9391 24.1301 16.7939C21.844 17.6737 19.1465 18.7911 17.361 20.1481C16.3511 20.9156 15.7172 21.6984 15.5471 22.4812ZM2.99999 25L7.99999 23L7.6286 22.0715L2.6286 24.0715L2.99999 25ZM32 23L37 25L37.3714 24.0715L32.3714 22.0715L32 23ZM4.99999 10L9.66368 12.6926L10.1637 11.8266L5.49999 9.13398L4.99999 10ZM20 2V7.38516H21V2H20Z" fill="url(#paint0_linear_3_677)"></path>
                            <path d="M35.5933 10.0406L36.0144 9.77104L35.7569 9.36875L35.3433 9.60756L35.5933 10.0406ZM30.9999 12.6926L30.5669 12.9426L30.8169 13.3756L31.2499 13.1256L30.9999 12.6926ZM30.4999 11.8266L30.2499 11.3935L29.8169 11.6435L30.0669 12.0766L30.4999 11.8266ZM35.0301 9.21101L35.2801 9.64403L35.7587 9.36773L35.4361 8.9191L35.0301 9.21101ZM25.3 16.091L24.8084 16L25.3 16.091ZM25.4618 15.2174L25.9534 15.3084L26.1152 14.4348L25.2845 14.7499L25.4618 15.2174ZM22.1947 24.2399L21.7755 23.9672L22.1947 24.2399ZM19.4165 26.8373L19.5929 27.3051H19.5929L19.4165 26.8373ZM17.6793 26.93L17.8106 26.4476L17.6793 26.93ZM15.9548 25.8535L15.6013 26.2071L15.9548 25.8535ZM14.5699 22.2688L14.0813 22.1626L14.5699 22.2688ZM16.7559 19.3519L17.0585 19.75L16.7559 19.3519ZM24.6311 15.5325L24.8084 16H24.8084L24.6311 15.5325ZM16.6619 25.1465L17.0155 24.7929V24.7929L16.6619 25.1465ZM15.5471 22.4812L16.0356 22.5874L15.5471 22.4812ZM17.9419 25.9651L17.8106 26.4476H17.8106L17.9419 25.9651ZM19.0639 25.9015L18.8875 25.4336L19.0639 25.9015ZM21.3564 23.6946L21.7756 23.9672L21.3564 23.6946ZM24.1301 16.7939L24.617 16.908L24.8325 15.9879L23.9506 16.3273L24.1301 16.7939ZM17.361 20.1481L17.6635 20.5462L17.361 20.1481ZM7.99999 23L8.18569 23.4642L8.64993 23.2785L8.46423 22.8143L7.99999 23ZM2.99999 25L2.53575 25.1857L2.72145 25.6499L3.18569 25.4642L2.99999 25ZM7.6286 22.0715L8.09284 21.8858L7.90714 21.4216L7.44291 21.6073L7.6286 22.0715ZM2.6286 24.0715L2.44291 23.6073L1.97867 23.793L2.16436 24.2572L2.6286 24.0715ZM37 25L36.8143 25.4642L37.2785 25.6499L37.4642 25.1857L37 25ZM32 23L31.5358 22.8143L31.3501 23.2785L31.8143 23.4642L32 23ZM37.3714 24.0715L37.8356 24.2572L38.0213 23.793L37.5571 23.6073L37.3714 24.0715ZM32.3714 22.0715L32.5571 21.6073L32.0928 21.4216L31.9071 21.8858L32.3714 22.0715ZM9.66368 12.6926L9.41368 13.1256L9.84669 13.3756L10.0967 12.9426L9.66368 12.6926ZM4.99999 10L4.56698 9.75L4.31698 10.183L4.74999 10.433L4.99999 10ZM10.1637 11.8266L10.5967 12.0766L10.8467 11.6435L10.4137 11.3935L10.1637 11.8266ZM5.49999 9.13398L5.74999 8.70096L5.31698 8.45096L5.06698 8.88398L5.49999 9.13398ZM20 7.38516H19.5V7.88516H20V7.38516ZM20 2V1.5H19.5V2H20ZM21 7.38516V7.88516H21.5V7.38516H21ZM21 2H21.5V1.5H21V2ZM2.00018 20C2.00018 10.0589 10.0591 2 20.0002 2V1C9.50677 1 1.00018 9.50659 1.00018 20H2.00018ZM20.0002 38C10.0591 38 2.00018 29.9411 2.00018 20H1.00018C1.00018 30.4934 9.50677 39 20.0002 39V38ZM38.0002 20C38.0002 29.9411 29.9413 38 20.0002 38V39C30.4936 39 39.0002 30.4934 39.0002 20H38.0002ZM35.1722 10.3101C36.9623 13.1071 38.0002 16.4316 38.0002 20H39.0002C39.0002 16.2349 37.9045 12.7241 36.0144 9.77104L35.1722 10.3101ZM31.2499 13.1256L35.8433 10.4736L35.3433 9.60756L30.7499 12.2596L31.2499 13.1256ZM30.0669 12.0766L30.5669 12.9426L31.4329 12.4426L30.9329 11.5766L30.0669 12.0766ZM34.7801 8.778L30.2499 11.3935L30.7499 12.2596L35.2801 9.64403L34.7801 8.778ZM20.0002 2C26.0235 2 31.356 4.95806 34.6242 9.50293L35.4361 8.9191C31.988 4.12418 26.3589 1 20.0002 1V2ZM20.0002 0C8.95449 0 0.000183105 8.95431 0.000183105 20H1.00018C1.00018 9.50659 9.50677 1 20.0002 1V0ZM40.0002 20C40.0002 8.95431 31.0459 0 20.0002 0V1C30.4936 1 39.0002 9.50659 39.0002 20H40.0002ZM20.0002 40C31.0459 40 40.0002 31.0457 40.0002 20H39.0002C39.0002 30.4934 30.4936 39 20.0002 39V40ZM0.000183105 20C0.000183105 31.0457 8.95449 40 20.0002 40V39C9.50677 39 1.00018 30.4934 1.00018 20H0.000183105ZM25.7917 16.1821L25.9534 15.3084L24.9702 15.1263L24.8084 16L25.7917 16.1821ZM22.6138 24.5126C24.2175 22.0475 25.3592 18.5174 25.7917 16.1821L24.8084 16C24.3917 18.25 23.2865 21.6448 21.7755 23.9672L22.6138 24.5126ZM19.5929 27.3051C20.8204 26.8425 21.8239 25.7266 22.6138 24.5126L21.7755 23.9672C21.0201 25.1284 20.1632 26.0215 19.2402 26.3694L19.5929 27.3051ZM17.548 27.4125C18.2588 27.6059 18.9523 27.5466 19.5929 27.3051L19.2402 26.3694C18.7786 26.5433 18.3006 26.5809 17.8106 26.4476L17.548 27.4125ZM15.6013 26.2071C16.2004 26.8063 16.8489 27.2223 17.548 27.4125L17.8106 26.4476C17.3205 26.3142 16.8183 26.01 16.3084 25.5L15.6013 26.2071ZM14.0813 22.1626C13.7773 23.5607 14.3253 24.9311 15.6013 26.2071L16.3084 25.5C15.1829 24.3745 14.8502 23.3328 15.0585 22.375L14.0813 22.1626ZM16.4534 18.9538C15.3483 19.7937 14.3659 20.8532 14.0813 22.1626L15.0585 22.375C15.2668 21.4167 16.0168 20.5417 17.0585 19.75L16.4534 18.9538ZM24.4537 15.065C22.0749 15.9673 18.6748 17.2655 16.4534 18.9538L17.0585 19.75C19.1418 18.1666 22.3919 16.9166 24.8084 16L24.4537 15.065ZM25.2845 14.7499L24.4537 15.065L24.8084 16L25.6391 15.6849L25.2845 14.7499ZM17.0155 24.7929C16.0428 23.8202 15.9226 23.1073 16.0356 22.5874L15.0585 22.375C14.8503 23.3326 15.1827 24.3743 16.3084 25.5L17.0155 24.7929ZM18.0731 25.4827C17.792 25.4062 17.436 25.2135 17.0155 24.7929L16.3084 25.5C16.8183 26.01 17.3205 26.3142 17.8106 26.4476L18.0731 25.4827ZM18.8875 25.4336C18.6053 25.54 18.3428 25.556 18.0731 25.4827L17.8106 26.4476C18.3006 26.5809 18.7786 26.5434 19.2402 26.3694L18.8875 25.4336ZM20.9373 23.4219C20.2162 24.5304 19.5059 25.2006 18.8875 25.4336L19.2402 26.3694C20.1632 26.0215 21.0201 25.1284 21.7756 23.9672L20.9373 23.4219ZM23.6433 16.6799C23.1484 18.7923 22.1745 21.5204 20.9373 23.4219L21.7756 23.9672C23.0978 21.9349 24.1067 19.0859 24.617 16.908L23.6433 16.6799ZM17.6635 20.5462C19.384 19.2386 22.0153 18.1435 24.3097 17.2606L23.9506 16.3273C21.6727 17.2039 18.909 18.3436 17.0585 19.75L17.6635 20.5462ZM16.0356 22.5874C16.1677 21.98 16.6854 21.2895 17.6635 20.5462L17.0585 19.75C16.0167 20.5417 15.2668 21.4167 15.0585 22.375L16.0356 22.5874ZM7.8143 22.5358L2.8143 24.5358L3.18569 25.4642L8.18569 23.4642L7.8143 22.5358ZM7.16436 22.2572L7.53575 23.1857L8.46423 22.8143L8.09284 21.8858L7.16436 22.2572ZM2.8143 24.5358L7.8143 22.5358L7.44291 21.6073L2.44291 23.6073L2.8143 24.5358ZM3.46423 24.8143L3.09284 23.8858L2.16436 24.2572L2.53575 25.1857L3.46423 24.8143ZM37.1857 24.5358L32.1857 22.5358L31.8143 23.4642L36.8143 25.4642L37.1857 24.5358ZM36.9071 23.8858L36.5358 24.8143L37.4642 25.1857L37.8356 24.2572L36.9071 23.8858ZM32.1857 22.5358L37.1857 24.5358L37.5571 23.6073L32.5571 21.6073L32.1857 22.5358ZM32.4642 23.1857L32.8356 22.2572L31.9071 21.8858L31.5358 22.8143L32.4642 23.1857ZM9.91368 12.2596L5.24999 9.56699L4.74999 10.433L9.41368 13.1256L9.91368 12.2596ZM9.73067 11.5766L9.23067 12.4426L10.0967 12.9426L10.5967 12.0766L9.73067 11.5766ZM5.24999 9.56699L9.91368 12.2596L10.4137 11.3935L5.74999 8.70096L5.24999 9.56699ZM5.433 10.25L5.933 9.38398L5.06698 8.88398L4.56698 9.75L5.433 10.25ZM20.5 7.38516V2H19.5V7.38516H20.5ZM21 6.88516H20V7.88516H21V6.88516ZM20.5 2V7.38516H21.5V2H20.5ZM20 2.5H21V1.5H20V2.5Z" fill="url(#paint1_linear_3_677)"></path>
                            <defs>
                                <linearGradient id="paint0_linear_3_677" x1="20.0002" y1="0.5" x2="20.0002" y2="39.5" gradientUnits="userSpaceOnUse">
                                    <stop stop-color="#343C3B"></stop>
                                    <stop offset="1" stop-color="#222728"></stop>
                                </linearGradient>
                                <linearGradient id="paint1_linear_3_677" x1="20.0002" y1="0.5" x2="20.0002" y2="39.5" gradientUnits="userSpaceOnUse">
                                    <stop stop-color="#A2CFC0"></stop>
                                    <stop offset="0.369108" stop-color="#89ADA2"></stop>
                                    <stop offset="0.711379" stop-color="#5B6D69"></stop>
                                    <stop offset="1" stop-color="#515B59"></stop>
                                </linearGradient>
                            </defs>
                        </svg>