<svg width="40" height="41" viewBox="0 0 40 41" fill="none" xmlns="http://www.w3.org/2000/svg">
                            <circle cx="20" cy="20" r="19" fill="url(#paint0_linear_3_704)" stroke="url(#paint1_linear_3_704)" stroke-width="2"></circle>
                            <path d="M15.2917 13.2084V10.0834C15.2917 9.80715 15.4014 9.5422 15.5968 9.34685C15.7921 9.15149 16.0571 9.04175 16.3333 9.04175H24.6667C24.9429 9.04175 25.2079 9.15149 25.4032 9.34685C25.5986 9.5422 25.7083 9.80715 25.7083 10.0834V13.2084H29.875C30.1513 13.2084 30.4162 13.3182 30.6116 13.5135C30.8069 13.7089 30.9167 13.9738 30.9167 14.2501V28.8334C30.9167 29.1097 30.8069 29.3746 30.6116 29.57C30.4162 29.7653 30.1513 29.8751 29.875 29.8751H11.125C10.8487 29.8751 10.5838 29.7653 10.3884 29.57C10.1931 29.3746 10.0833 29.1097 10.0833 28.8334V14.2501C10.0833 13.9738 10.1931 13.7089 10.3884 13.5135C10.5838 13.3182 10.8487 13.2084 11.125 13.2084H15.2917ZM17.375 21.5417H12.1667V27.7917H28.8333V21.5417H23.625V24.6667H17.375V21.5417ZM28.8333 15.2917H12.1667V19.4584H17.375V17.3751H23.625V19.4584H28.8333V15.2917ZM19.4583 19.4584V22.5834H21.5417V19.4584H19.4583ZM17.375 11.1251V13.2084H23.625V11.1251H17.375Z" fill="url(#paint2_linear_3_704)"></path>
                            <defs>
                                <linearGradient id="paint0_linear_3_704" x1="20" y1="1" x2="20" y2="39" gradientUnits="userSpaceOnUse">
                                    <stop stop-color="#343C3B"></stop>
                                    <stop offset="1" stop-color="#222728"></stop>
                                </linearGradient>
                                <linearGradient id="paint1_linear_3_704" x1="20" y1="1" x2="20" y2="39" gradientUnits="userSpaceOnUse">
                                    <stop stop-color="#A2CFC0"></stop>
                                    <stop offset="0.369108" stop-color="#89ADA2"></stop>
                                    <stop offset="0.711379" stop-color="#5B6D69"></stop>
                                    <stop offset="1" stop-color="#515B59"></stop>
                                </linearGradient>
                                <linearGradient id="paint2_linear_3_704" x1="26.8406" y1="18.9102" x2="26.8406" y2="28.7786" gradientUnits="userSpaceOnUse">
                                    <stop stop-color="#A2CFC0"></stop>
                                    <stop offset="0.369108" stop-color="#89ADA2"></stop>
                                    <stop offset="0.711379" stop-color="#5B6D69"></stop>
                                    <stop offset="1" stop-color="#515B59"></stop>
                                </linearGradient>
                            </defs>
                        </svg>