<svg width="49" height="40" viewBox="0 0 49 40" fill="none" xmlns="http://www.w3.org/2000/svg">
                                <path d="M24 19C25.3261 19 26.5979 19.5268 27.5355 20.4645C28.4732 21.4021 29 22.6739 29 24C29 25.3261 28.4732 26.5979 27.5355 27.5355C26.5979 28.4732 25.3261 29 24 29C22.6739 29 21.4021 28.4732 20.4645 27.5355C19.5268 26.5979 19 25.3261 19 24C19 22.6739 19.5268 21.4021 20.4645 20.4645C21.4021 19.5268 22.6739 19 24 19ZM24 21.5C23.337 21.5 22.7011 21.7634 22.2322 22.2322C21.7634 22.7011 21.5 23.337 21.5 24C21.5 24.663 21.7634 25.2989 22.2322 25.7678C22.7011 26.2366 23.337 26.5 24 26.5C24.663 26.5 25.2989 26.2366 25.7678 25.7678C26.2366 25.2989 26.5 24.663 26.5 24C26.5 23.337 26.2366 22.7011 25.7678 22.2322C25.2989 21.7634 24.663 21.5 24 21.5ZM24 30.25C27.3375 30.25 34 31.9125 34 35.25V39H14V35.25C14 31.9125 20.6625 30.25 24 30.25ZM24 32.625C20.2875 32.625 16.375 34.45 16.375 35.25V36.625H31.625V35.25C31.625 34.45 27.7125 32.625 24 32.625Z" fill="#FBFBFB"></path>
                                <circle cx="41" cy="26" r="3" fill="#FBFBFB"></circle>
                                <circle cx="3" cy="3" r="3" transform="matrix(-1 0 0 1 11 23)" fill="#FBFBFB"></circle>
                                <path d="M49 37.3689C49 33.6634 42.3333 31.579 39 31L39.5 35V39L49 39.1059V37.3689Z" fill="#FBFBFB"></path>
                                <path d="M0 37.3689C0 33.6634 6.66667 31.579 10 31L9.5 35V39L0 39.1059V37.3689Z" fill="#FBFBFB"></path>
                                <path d="M45.1268 20C52.1691 8.20245 38.0846 -9.23838 24 8.71545" stroke="#7ED6B7"></path>
                                <path d="M2.93119 20C-4.37704 8.20242 10.3836 -9.23841 25 8.71547" stroke="#7ED6B7"></path>
                            </svg>