<svg width="35" height="41" viewBox="0 0 35 41" fill="none" xmlns="http://www.w3.org/2000/svg">
                                <path d="M13.0002 37.5C9.16682 35.5 1.40016 29.8 1.00016 23C0.600158 16.2 0.833491 9.83333 1.00016 7.5L14 1.5L27.5 6V17" stroke="#FBFBFB" stroke-width="1.5"></path>
                                <path d="M24.5 36.8C22.3125 36.8 20.3787 35.68 19.25 34C19.2762 32.25 22.75 31.2875 24.5 31.2875C26.25 31.2875 29.7238 32.25 29.75 34C29.1715 34.8614 28.3901 35.5673 27.4746 36.0555C26.5591 36.5438 25.5376 36.7995 24.5 36.8ZM24.5 24.375C25.1962 24.375 25.8639 24.6516 26.3562 25.1438C26.8484 25.6361 27.125 26.3038 27.125 27C27.125 27.6962 26.8484 28.3639 26.3562 28.8562C25.8639 29.3484 25.1962 29.625 24.5 29.625C23.8038 29.625 23.1361 29.3484 22.6438 28.8562C22.1516 28.3639 21.875 27.6962 21.875 27C21.875 26.3038 22.1516 25.6361 22.6438 25.1438C23.1361 24.6516 23.8038 24.375 24.5 24.375ZM24.5 21.75C23.3509 21.75 22.2131 21.9763 21.1515 22.4161C20.0899 22.8558 19.1253 23.5003 18.3128 24.3128C16.6719 25.9538 15.75 28.1794 15.75 30.5C15.75 32.8206 16.6719 35.0462 18.3128 36.6872C19.1253 37.4997 20.0899 38.1442 21.1515 38.5839C22.2131 39.0237 23.3509 39.25 24.5 39.25C26.8206 39.25 29.0462 38.3281 30.6872 36.6872C32.3281 35.0462 33.25 32.8206 33.25 30.5C33.25 25.6612 29.3125 21.75 24.5 21.75Z" fill="#75C7AB"></path>
                            </svg>