<svg width="42" height="35" viewBox="0 0 42 35" fill="none" xmlns="http://www.w3.org/2000/svg">
                                <path d="M4.5 34L17.5 21L26 29L41 12" stroke="#FBFBFB" stroke-width="1.5"></path>
                                <path d="M13.5 0L14.9955 3.00447L18 4.5L14.9955 5.99553L13.5 9L12.0045 5.99553L9 4.5L12.0045 3.00447L13.5 0Z" fill="#7AD1B3"></path>
                                <path d="M27.5 9L28.6632 11.3368L31 12.5L28.6632 13.6632L27.5 16L26.3368 13.6632L24 12.5L26.3368 11.3368L27.5 9Z" fill="#7AD1B3"></path>
                                <path d="M3.5 13L4.66319 15.3368L7 16.5L4.66319 17.6632L3.5 20L2.33681 17.6632L0 16.5L2.33681 15.3368L3.5 13Z" fill="#7AD1B3"></path>
                            </svg>