<svg width="133" height="43" viewBox="0 0 133 43" fill="none" xmlns="http://www.w3.org/2000/svg">
                                <path d="M115.346 18.7527C117.299 19.2578 120.651 23.872 129.095 39.4006C129.293 39.7651 129.679 40.0008 130.094 40.0008C130.719 40.0008 131.226 40.5073 131.226 41.1321V41.4446C131.226 42.242 130.579 42.8884 129.782 42.8884H2.00385C1.20645 42.8884 0.560028 42.242 0.560028 41.4446V33.5036C0.560028 32.7062 1.20645 32.0598 2.00385 32.0598H3.30876C3.83909 32.0598 4.32672 31.7691 4.5789 31.3025L11.2244 19.0084C11.3324 18.8086 11.486 18.6371 11.6727 18.5078L16.0811 15.4559L24.1068 8.97353C24.812 8.40398 25.8614 8.61749 26.288 9.41729L31.0246 18.2984C31.1655 18.5626 31.385 18.7764 31.6528 18.9103L37.7871 21.9775C38.209 22.1884 38.7072 22.18 39.1217 21.955L50.7345 15.6508C50.9693 15.5234 51.1642 15.3333 51.2974 15.1016L58.7023 2.22345C59.0893 1.55037 59.9394 1.30388 60.6264 1.66549L65.7401 4.35688C66.0697 4.53037 66.3195 4.82457 66.4373 5.17796L70.6171 17.7172C70.8136 18.3068 71.3654 18.7045 71.9868 18.7045H75.0896C75.4433 18.7045 75.7846 18.8342 76.0489 19.0692L84.3668 26.4629C84.9382 26.9708 85.8064 26.9453 86.347 26.4047L89.6507 23.101C90.1145 22.6373 90.8326 22.5444 91.3991 22.8748L98.3969 26.9569C98.8337 27.2117 99.3719 27.2194 99.8158 26.9773L114.659 18.8808C114.872 18.7651 115.113 18.6922 115.346 18.7527Z" fill="url(#paint0_linear_0_325)"></path>
                                <path d="M0.559938 32.0598H3.30567C3.83758 32.0598 4.32641 31.7673 4.57791 31.2986L11.8392 17.7663C12.0134 17.4415 12.3052 17.1957 12.6548 17.0792L17.2182 15.5581C17.4201 15.4908 17.6046 15.3797 17.7586 15.2327L24.09 9.18912C24.7812 8.52932 25.9112 8.71091 26.3609 9.55407L31.0245 18.2984C31.1654 18.5626 31.3849 18.7764 31.6527 18.9103L37.787 21.9775C38.2089 22.1884 38.7071 22.18 39.1216 21.955L50.7344 15.6508C50.9693 15.5234 51.1641 15.3332 51.2973 15.1016L58.7022 2.22345C59.0892 1.55037 59.9393 1.30388 60.6263 1.66549L65.74 4.35688C66.0696 4.53037 66.3194 4.82456 66.4372 5.17796L70.617 17.7172C70.8135 18.3068 71.3653 18.7045 71.9867 18.7045H75.0895C75.4432 18.7045 75.7845 18.8342 76.0488 19.0692L84.3667 26.4629C84.9381 26.9708 85.8063 26.9453 86.3469 26.4047L89.6506 23.101C90.1144 22.6373 90.8325 22.5444 91.399 22.8748L98.322 26.9133C98.7984 27.1912 99.3915 27.1734 99.8504 26.8675L109.929 20.1483C118.461 15.1711 119.08 22.7294 127.926 39.2365C128.176 39.7033 128.668 40.0008 129.197 40.0008H132.308" stroke="url(#paint1_linear_0_325)" stroke-width="2.16573"></path>
                                <defs>
                                    <linearGradient id="paint0_linear_0_325" x1="65.8928" y1="1.0177" x2="65.8928" y2="42.8884" gradientUnits="userSpaceOnUse">
                                        <stop stop-color="#DB5748" stop-opacity="0.52"></stop>
                                        <stop offset="1" stop-color="#DB5748" stop-opacity="0"></stop>
                                    </linearGradient>
                                    <linearGradient id="paint1_linear_0_325" x1="130.682" y1="23.4184" x2="0.559944" y2="23.4184" gradientUnits="userSpaceOnUse">
                                        <stop stop-color="#F858A7"></stop>
                                        <stop offset="1" stop-color="#F75760"></stop>
                                    </linearGradient>
                                </defs>
                            </svg>