<svg width="138" height="45" viewBox="0 0 138 45" fill="none" xmlns="http://www.w3.org/2000/svg">
                                    <path d="M21.3018 19.6842C18.9302 20.2528 12.8783 25.0823 4.08914 41.1278C3.88203 41.5059 3.48149 41.75 3.05037 41.75C2.40123 41.75 1.875 42.2762 1.875 42.9254V43.25C1.875 44.0784 2.54658 44.75 3.375 44.75H136.125C136.953 44.75 137.625 44.0784 137.625 43.25V35C137.625 34.1716 136.953 33.5 136.125 33.5H134.769C134.218 33.5 133.712 33.198 133.45 32.7133L126.546 19.9407C126.433 19.7332 126.274 19.555 126.08 19.4207L121.5 16.25L113.162 9.51541C112.429 8.92369 111.339 9.14551 110.896 9.97644L105.975 19.2031C105.829 19.4776 105.601 19.6997 105.322 19.8388L98.9493 23.0253C98.5111 23.2445 97.9935 23.2357 97.5629 23.002L85.4981 16.4525C85.2542 16.3201 85.0517 16.1226 84.9134 15.882L77.2203 2.50267C76.8182 1.8034 75.9351 1.54731 75.2213 1.923L69.9087 4.71911C69.5662 4.89936 69.3067 5.205 69.1843 5.57215L64.8419 18.5993C64.6377 19.2119 64.0645 19.625 63.4189 19.625H60.1953C59.8279 19.625 59.4733 19.7598 59.1988 20.0039L50.5571 27.6854C49.9635 28.213 49.0615 28.1865 48.4999 27.6249L45.0676 24.1927C44.5858 23.7108 43.8398 23.6143 43.2512 23.9576L36.0588 28.1532C35.5639 28.4419 34.9477 28.4235 34.4709 28.1056L22.1279 19.8769C21.8815 19.7127 21.5898 19.6151 21.3018 19.6842Z" fill="url(#paint0_linear_1_465)"></path>
                                    <path d="M137.625 33.5H134.772C134.22 33.5 133.712 33.1962 133.451 32.7092L125.907 18.6503C125.726 18.3129 125.423 18.0576 125.059 17.9365L120.319 16.3562C120.109 16.2863 119.917 16.1708 119.757 16.0182L113.179 9.73939C112.461 9.05391 111.287 9.24257 110.82 10.1185L105.975 19.2031C105.829 19.4776 105.601 19.6997 105.322 19.8388L98.9493 23.0253C98.5111 23.2445 97.9935 23.2357 97.5629 23.002L85.4981 16.4525C85.2542 16.3201 85.0517 16.1226 84.9134 15.882L77.2203 2.50267C76.8182 1.8034 75.9351 1.54731 75.2213 1.923L69.9087 4.71911C69.5662 4.89936 69.3067 5.205 69.1843 5.57215L64.8419 18.5993C64.6377 19.2119 64.0645 19.625 63.4189 19.625H60.1953C59.8279 19.625 59.4733 19.7598 59.1988 20.0039L50.5571 27.6854C49.9635 28.213 49.0615 28.1865 48.4999 27.6249L45.0677 24.1927C44.5858 23.7108 43.8398 23.6143 43.2512 23.9576L35.9509 28.2162C35.5136 28.4713 34.9771 28.4885 34.5243 28.2621L17.5667 19.7834C17.3584 19.6792 17.1236 19.6083 16.9005 19.6749C15.1536 20.1963 13.9377 24.9567 5.3053 40.9546C5.04403 41.4388 4.53233 41.75 3.98214 41.75H0.75" stroke="#7EB194" stroke-width="2.25"></path>
                                    <defs>
                                        <linearGradient id="paint0_linear_1_465" x1="69.75" y1="1.25" x2="69.75" y2="44.75" gradientUnits="userSpaceOnUse">
                                            <stop stop-color="#224830"></stop>
                                            <stop offset="1" stop-color="#224830" stop-opacity="0"></stop>
                                        </linearGradient>
                                    </defs>
                                </svg>